<svg width="40" height="40" viewBox="0 0 40 40" fill="none" xmlns="http://www.w3.org/2000/svg">
<path d="M20 3.75C16.6671 3.75 13.4707 5.07398 11.114 7.43069C8.75733 9.7874 7.43335 12.9838 7.43335 16.3167C7.43335 26.7833 20 36.25 20 36.25C20 36.25 32.5667 26.7833 32.5667 16.3167C32.5667 12.9838 31.2427 9.7874 28.886 7.43069C26.5293 5.07398 23.3329 3.75 20 3.75ZM20.0583 4.41667C21.8834 5.33333 24.8917 7.55 25.9334 10.6083C25.1 13.4167 22.275 15.9667 20.1 16.9417V13.75C18.3334 14.3333 14.6917 17.9917 14.4917 19.875C14.9417 21.9 18.5334 25.4083 20.0334 25.7917C20.0334 25.7917 19.9917 22.9333 20.0334 22.8083C26.175 22.8083 29.3 17.075 29.2667 13.5417C29.2333 10.0083 27.7833 6.38333 24.8333 4.70833C26.8228 5.71962 28.4965 7.2576 29.6721 9.15464C30.8476 11.0517 31.4799 13.235 31.5 15.4667C31.5 16.9749 31.2023 18.4683 30.6238 19.8612C30.0454 21.2541 29.1977 22.5191 28.1292 23.5837C27.0608 24.6482 25.7927 25.4914 24.3977 26.0648C23.0027 26.6382 21.5082 26.9305 20 26.925H19.1667C7.65002 25.0917 9.05835 8.59167 20 7.71667L20.0583 4.41667Z" fill="#00CA00"/>
</svg>
