<svg width="40" height="40" viewBox="0 0 40 40" fill="none" xmlns="http://www.w3.org/2000/svg">
<path d="M8.75 10.625C8.75 9.46468 9.21094 8.35188 10.0314 7.53141C10.8519 6.71094 11.9647 6.25 13.125 6.25C14.2853 6.25 15.3981 6.71094 16.2186 7.53141C17.0391 8.35188 17.5 9.46468 17.5 10.625C17.5 11.7853 17.0391 12.8981 16.2186 13.7186C15.3981 14.5391 14.2853 15 13.125 15C11.9647 15 10.8519 14.5391 10.0314 13.7186C9.21094 12.8981 8.75 11.7853 8.75 10.625ZM13.125 3.75C11.3016 3.75 9.55295 4.47433 8.26364 5.76364C6.97433 7.05295 6.25 8.80164 6.25 10.625C6.25 12.4484 6.97433 14.197 8.26364 15.4864C9.55295 16.7757 11.3016 17.5 13.125 17.5C14.9484 17.5 16.697 16.7757 17.9864 15.4864C19.2757 14.197 20 12.4484 20 10.625C20 8.80164 19.2757 7.05295 17.9864 5.76364C16.697 4.47433 14.9484 3.75 13.125 3.75ZM26.25 12.5C26.25 11.837 26.5134 11.2011 26.9822 10.7322C27.4511 10.2634 28.087 10 28.75 10C29.413 10 30.0489 10.2634 30.5178 10.7322C30.9866 11.2011 31.25 11.837 31.25 12.5C31.25 13.163 30.9866 13.7989 30.5178 14.2678C30.0489 14.7366 29.413 15 28.75 15C28.087 15 27.4511 14.7366 26.9822 14.2678C26.5134 13.7989 26.25 13.163 26.25 12.5ZM28.75 7.5C27.4239 7.5 26.1521 8.02678 25.2145 8.96447C24.2768 9.90215 23.75 11.1739 23.75 12.5C23.75 13.8261 24.2768 15.0979 25.2145 16.0355C26.1521 16.9732 27.4239 17.5 28.75 17.5C30.0761 17.5 31.3479 16.9732 32.2855 16.0355C33.2232 15.0979 33.75 13.8261 33.75 12.5C33.75 11.1739 33.2232 9.90215 32.2855 8.96447C31.3479 8.02678 30.0761 7.5 28.75 7.5ZM20 20C20.4837 20 20.9463 20.0913 21.37 20.2588C20.615 20.9147 19.9508 21.6684 19.395 22.5H6.25C5.91848 22.5 5.60054 22.6317 5.36612 22.8661C5.1317 23.1005 5 23.4185 5 23.75V23.9875C5 24.0092 5.00375 24.0483 5.01125 24.105C5.02375 24.2175 5.05 24.3925 5.10625 24.61C5.21875 25.045 5.4475 25.6325 5.9075 26.2238C6.78875 27.3538 8.725 28.75 13.125 28.75C15 28.75 16.4288 28.4963 17.5175 28.1175C17.4689 28.9775 17.5192 29.8402 17.6675 30.6888C16.41 31.0425 14.9113 31.25 13.125 31.25C8.15 31.25 5.4 29.6375 3.93625 27.76C3.35321 27.0129 2.92795 26.1551 2.68625 25.2388C2.59143 24.8709 2.53034 24.4952 2.50375 24.1162L2.50125 24.0325V24.0037L2.5 23.9937V23.75C2.5 22.7554 2.89509 21.8016 3.59835 21.0983C4.30161 20.3951 5.25544 20 6.25 20H20ZM38.125 28.75C38.125 31.2364 37.1373 33.621 35.3791 35.3791C33.621 37.1373 31.2364 38.125 28.75 38.125C26.2636 38.125 23.879 37.1373 22.1209 35.3791C20.3627 33.621 19.375 31.2364 19.375 28.75C19.375 26.2636 20.3627 23.879 22.1209 22.1209C23.879 20.3627 26.2636 19.375 28.75 19.375C31.2364 19.375 33.621 20.3627 35.3791 22.1209C37.1373 23.879 38.125 26.2636 38.125 28.75ZM27.86 22.6725L26.685 26.2075H22.9425C22.0287 26.2075 21.655 27.38 22.4 27.9087L25.4075 30.0425L24.2463 33.5325C23.9612 34.3913 24.94 35.1162 25.6787 34.5925L28.75 32.4137L31.8213 34.5925C32.56 35.1175 33.5388 34.3925 33.2537 33.5325L32.0913 30.0425L35.1 27.9087C35.8462 27.38 35.4712 26.2075 34.5575 26.2075H30.815L29.64 22.6725C29.355 21.8175 28.145 21.8175 27.86 22.6725Z" fill="#00CA00"/>
</svg>
